<svg xmlns="http://www.w3.org/2000/svg" version="1.1" xmlns:xlink="http://www.w3.org/1999/xlink" width="512" height="512" x="0" y="0" viewBox="0 0 512 512" style="enable-background:new 0 0 512 512" xml:space="preserve" class=""><g><path d="m194.403 176.227-67.021 159.926H83.638L50.68 208.536c-2.029-7.87-3.763-10.734-9.847-14.076-9.966-5.388-26.359-10.442-40.833-13.59l1.013-4.642h70.379c8.976 0 17.046 5.987 19.075 16.308l17.427 92.562 43.044-108.87h43.465zm171.346 107.688c.194-42.186-58.373-44.482-57.952-63.355.114-5.761 5.574-11.857 17.532-13.396 5.938-.79 22.279-1.369 40.8 7.134l7.259-33.898c-9.965-3.617-22.774-7.081-38.694-7.081-40.889 0-69.674 21.749-69.917 52.868-.268 23.012 20.537 35.854 36.23 43.518 16.114 7.842 21.502 12.849 21.445 19.882-.105 10.734-12.857 15.425-24.751 15.636-20.805.324-32.872-5.622-42.509-10.11l-7.49 35.063c9.653 4.432 27.525 8.28 46.021 8.507 43.459-.002 71.889-21.519 72.026-54.768m107.979 52.239H512l-33.395-159.926h-35.331c-7.939 0-14.632 4.63-17.614 11.723l-62.042 148.203h43.425l8.62-23.884h53.082l4.983 23.884zm-46.164-56.663 21.786-60.05 12.533 60.05h-34.319zM253.525 176.227l-34.23 159.926h-41.379l34.238-159.926h41.371z" style="" fill="#ffffff" data-original="#1a2adf" class="" opacity="1"></path></g></svg>